<svg width="48" height="48" fill="none" xmlns="http://www.w3.org/2000/svg"><path d="M10 8c0 1 7 3.5 14.745 16.744 0 0 4.184-4.363 6.255-5.744 1.5-1 2.712-1.332 2.712-1.332C33.712 15.156 29.5 8 28 8z" fill="#00d6b9"/><path d="M43.5 18.5c-1-.667-3.65-1.771-6.5-1.5a15 15 0 0 0-3.288.668S32.5 18 31 19c-2.07 1.38-6.255 5.744-6.255 5.744-1.428 1.397-3.05 2.732-5.245 3.756 0 0 7 3 11.5 3 5.063 0 7-3.5 7-3.5 1.5-3.305 3.5-7 5.5-9.5" fill="#163c9a"/><path d="M4 17.5v17c0 1 6 5.5 15 5.5 10 0 17.05-7.705 19-12 0 0-1.937 3.5-7 3.5-4.5 0-11.5-3-11.5-3-5.117-2.239-10.03-6.577-12.906-9.117C4.974 17.953 4 17.093 4 17.5" fill="#3370ff"/></svg>