<svg width="46" height="46" fill="none" xmlns="http://www.w3.org/2000/svg"><g clip-path="url(#clip0_338_13245)"><path d="M39.743 0H6.257A6.257 6.257 0 0 0 0 6.257v33.487A6.257 6.257 0 0 0 6.257 46h33.487A6.257 6.257 0 0 0 46 39.743V6.257A6.257 6.257 0 0 0 39.743 0" fill="#fff"/><mask id="mask0_338_13245" style="mask-type:luminance" maskUnits="userSpaceOnUse" x="5" y="8" width="36" height="30"><path d="M40.514 8.373H5.484v29.262h35.03z" fill="#fff"/></mask><g mask="url(#mask0_338_13245)"><path d="M28.856 31.647a.483.483 0 0 0 .06.738 6.2 6.2 0 0 1 1.911 3.725 2.02 2.02 0 1 0 2.16-2.54 6.2 6.2 0 0 1-3.448-1.922.483.483 0 0 0-.683-.001" fill="#fb6500"/></g><mask id="mask1_338_13245" style="mask-type:luminance" maskUnits="userSpaceOnUse" x="5" y="8" width="36" height="30"><path d="M40.514 8.373H5.484v29.262h35.03z" fill="#fff"/></mask><g mask="url(#mask1_338_13245)"><path d="M37.057 28.448a2 2 0 0 0-.58 1.215 6.2 6.2 0 0 1-1.918 3.454.484.484 0 1 0 .738.616 6.2 6.2 0 0 1 3.725-1.91 2.02 2.02 0 1 0-1.96-3.376z" fill="#0082ef"/></g><path d="M31.366 22.75a2.02 2.02 0 0 0 1.215 3.435 6.2 6.2 0 0 1 3.454 1.918.483.483 0 0 0 .829-.27.48.48 0 0 0-.212-.468 6.2 6.2 0 0 1-1.911-3.726 2.02 2.02 0 0 0-3.375-.889" fill="#2dbc00"/><mask id="mask2_338_13245" style="mask-type:luminance" maskUnits="userSpaceOnUse" x="5" y="8" width="36" height="30"><path d="M40.514 8.373H5.484v29.262h35.03z" fill="#fff"/></mask><g mask="url(#mask2_338_13245)"><path d="m30.374 25.907-.037.037a6.2 6.2 0 0 1-3.78 1.978 2.007 2.007 0 0 0-.895 3.374 2.02 2.02 0 0 0 3.435-1.216 6.2 6.2 0 0 1 1.923-3.453.484.484 0 0 0-.646-.72" fill="#fc0"/></g><mask id="mask3_338_13245" style="mask-type:luminance" maskUnits="userSpaceOnUse" x="5" y="8" width="36" height="30"><path d="M40.514 8.373H5.484v29.262h35.03z" fill="#fff"/></mask><g mask="url(#mask3_338_13245)"><path d="M18.17 8.471c-3.624.4-6.908 1.948-9.266 4.367-.938.956-1.7 2.032-2.262 3.182a11.08 11.08 0 0 0 .78 11.188c.64.968 1.693 2.178 2.654 3.037l-.435 3.423-.048.145c-.012.042-.012.09-.018.133l-.012.108.012.11a1.1 1.1 0 0 0 1.657.852h.018l.067-.049 1.04-.52 3.102-1.56a16 16 0 0 0 4.537.623c1.897.004 3.78-.323 5.564-.968a2.014 2.014 0 0 1-1.373-2.11 13.7 13.7 0 0 1-5.721.568l-.309-.042a14 14 0 0 1-2.056-.43 1.4 1.4 0 0 0-1.1.116l-.085.042-2.552 1.5-.109.066c-.06.036-.09.048-.12.048a.176.176 0 0 1-.164-.181l.097-.393.115-.43.181-.707.212-.787a1.07 1.07 0 0 0-.387-1.19 11.2 11.2 0 0 1-2.577-2.686 8.73 8.73 0 0 1-.629-8.818c.46-.92 1.065-1.773 1.815-2.54 1.935-1.997 4.657-3.267 7.669-3.593a14.3 14.3 0 0 1 3.132 0c2.994.344 5.704 1.633 7.627 3.617a10 10 0 0 1 1.796 2.551 8.7 8.7 0 0 1 .901 3.84c0 .14-.012.279-.018.412a2.015 2.015 0 0 1 2.48.29l.09.109a11 11 0 0 0-1.1-5.733 12.3 12.3 0 0 0-2.238-3.182 15.18 15.18 0 0 0-9.229-4.397 17 17 0 0 0-3.739-.01" fill="#0082ef"/></g></g><defs><clipPath id="clip0_338_13245"><path fill="#fff" d="M0 0h46v46H0z"/></clipPath></defs></svg>